<?xml version="1.0" encoding="UTF-8"?>
<svg width="800" height="600" xmlns="http://www.w3.org/2000/svg">
  <defs>
    <style>
      .title { font: bold 18px sans-serif; fill: #2E86AB; }
      .subtitle { font: 14px sans-serif; fill: #666; }
      .box { fill: #f8f9fa; stroke: #2E86AB; stroke-width: 2; rx: 8; }
      .agent-box { fill: #e3f2fd; stroke: #1976d2; stroke-width: 2; rx: 8; }
      .aws-box { fill: #fff3e0; stroke: #f57c00; stroke-width: 2; rx: 8; }
      .data-box { fill: #f3e5f5; stroke: #7b1fa2; stroke-width: 2; rx: 8; }
      .arrow { stroke: #666; stroke-width: 2; marker-end: url(#arrowhead); }
      .label { font: 12px sans-serif; fill: #333; text-anchor: middle; }
    </style>
    <marker id="arrowhead" markerWidth="10" markerHeight="7" refX="9" refY="3.5" orient="auto">
      <polygon points="0 0, 10 3.5, 0 7" fill="#666" />
    </marker>
  </defs>
  
  <!-- Title -->
  <text x="400" y="30" class="title" text-anchor="middle">EnforceAI Multi-Agent Architecture</text>
  <text x="400" y="50" class="subtitle" text-anchor="middle">AI-Powered DevOps Compliance Platform</text>
  
  <!-- User Layer -->
  <rect x="50" y="80" width="700" height="60" class="box"/>
  <text x="400" y="100" class="subtitle" text-anchor="middle">User Interface Layer</text>
  <rect x="80" y="110" width="120" height="25" class="box"/>
  <text x="140" y="127" class="label">Streamlit Dashboard</text>
  <rect x="220" y="110" width="80" height="25" class="box"/>
  <text x="260" y="127" class="label">REST API</text>
  <rect x="320" y="110" width="80" height="25" class="box"/>
  <text x="360" y="127" class="label">CLI Tools</text>
  <rect x="420" y="110" width="100" height="25" class="box"/>
  <text x="470" y="127" class="label">AI Assistant</text>
  <rect x="540" y="110" width="80" height="25" class="box"/>
  <text x="580" y="127" class="label">Reports</text>
  
  <!-- Multi-Agent System -->
  <rect x="50" y="170" width="700" height="120" class="agent-box"/>
  <text x="400" y="190" class="subtitle" text-anchor="middle">Multi-Agent System (Powered by Amazon Bedrock)</text>
  
  <rect x="80" y="210" width="150" height="60" class="agent-box"/>
  <text x="155" y="230" class="label">Compliance Agent</text>
  <text x="155" y="245" class="label" style="font-size: 10px;">GDPR, FISMA, EU AI Act</text>
  <text x="155" y="260" class="label" style="font-size: 10px;">Claude 3 Sonnet</text>
  
  <rect x="250" y="210" width="150" height="60" class="agent-box"/>
  <text x="325" y="230" class="label">Audit Agent</text>
  <text x="325" y="245" class="label" style="font-size: 10px;">AWS Resource Scanning</text>
  <text x="325" y="260" class="label" style="font-size: 10px;">EC2, RDS, S3, Lambda</text>
  
  <rect x="420" y="210" width="150" height="60" class="agent-box"/>
  <text x="495" y="230" class="label">Policy Agent</text>
  <text x="495" y="245" class="label" style="font-size: 10px;">Auto-Remediation</text>
  <text x="495" y="260" class="label" style="font-size: 10px;">Policy Enforcement</text>
  
  <rect x="590" y="210" width="120" height="60" class="agent-box"/>
  <text x="650" y="235" class="label">Orchestrator</text>
  <text x="650" y="250" class="label" style="font-size: 10px;">LangChain</text>
  <text x="650" y="265" class="label" style="font-size: 10px;">Workflow Mgmt</text>
  
  <!-- AWS Services Layer -->
  <rect x="50" y="320" width="700" height="100" class="aws-box"/>
  <text x="400" y="340" class="subtitle" text-anchor="middle">AWS Services Layer</text>
  
  <rect x="80" y="360" width="100" height="40" class="aws-box"/>
  <text x="130" y="375" class="label">Lambda</text>
  <text x="130" y="390" class="label" style="font-size: 10px;">Serverless</text>
  
  <rect x="200" y="360" width="100" height="40" class="aws-box"/>
  <text x="250" y="375" class="label">Bedrock</text>
  <text x="250" y="390" class="label" style="font-size: 10px;">AI Models</text>
  
  <rect x="320" y="360" width="100" height="40" class="aws-box"/>
  <text x="370" y="375" class="label">EventBridge</text>
  <text x="370" y="390" class="label" style="font-size: 10px;">Events</text>
  
  <rect x="440" y="360" width="100" height="40" class="aws-box"/>
  <text x="490" y="375" class="label">CloudWatch</text>
  <text x="490" y="390" class="label" style="font-size: 10px;">Monitoring</text>
  
  <rect x="560" y="360" width="100" height="40" class="aws-box"/>
  <text x="610" y="375" class="label">API Gateway</text>
  <text x="610" y="390" class="label" style="font-size: 10px;">REST API</text>
  
  <!-- Data Layer -->
  <rect x="50" y="450" width="700" height="100" class="data-box"/>
  <text x="400" y="470" class="subtitle" text-anchor="middle">Data & Storage Layer</text>
  
  <rect x="80" y="490" width="120" height="40" class="data-box"/>
  <text x="140" y="505" class="label">PostgreSQL</text>
  <text x="140" y="520" class="label" style="font-size: 10px;">Compliance Data</text>
  
  <rect x="220" y="490" width="120" height="40" class="data-box"/>
  <text x="280" y="505" class="label">Amazon S3</text>
  <text x="280" y="520" class="label" style="font-size: 10px;">Reports & Logs</text>
  
  <rect x="360" y="490" width="120" height="40" class="data-box"/>
  <text x="420" y="505" class="label">Redis Cache</text>
  <text x="420" y="520" class="label" style="font-size: 10px;">Session & Cache</text>
  
  <rect x="500" y="490" width="120" height="40" class="data-box"/>
  <text x="560" y="505" class="label">OpenSearch</text>
  <text x="560" y="520" class="label" style="font-size: 10px;">Vector DB</text>
  
  <!-- Arrows -->
  <line x1="400" y1="140" x2="400" y2="170" class="arrow"/>
  <line x1="400" y1="290" x2="400" y2="320" class="arrow"/>
  <line x1="400" y1="420" x2="400" y2="450" class="arrow"/>
  
  <!-- Side arrows for agent communication -->
  <line x1="230" y1="240" x2="250" y2="240" class="arrow"/>
  <line x1="400" y1="240" x2="420" y2="240" class="arrow"/>
  <line x1="570" y1="240" x2="590" y2="240" class="arrow"/>
  
</svg>